<?xml version="1.0" encoding="UTF-8"?>
<svg id="Layer_1" data-name="Layer 1" xmlns="http://www.w3.org/2000/svg" viewBox="0 0 60 60">
  <defs>
    <style>
      .cls-1 {
        fill: rgba(18, 18, 18, .1);
      }

      .cls-2 {
        fill: #121212;
      }
    </style>
  </defs>
  <circle id="Ellipse_2" data-name="Ellipse 2" class="cls-1" cx="30" cy="30" r="30"/>
  <g id="group_1" data-name="group 1">
    <g id="Group">
      <g id="Group_2" data-name="Group 2">
        <path id="Vector" class="cls-2" d="m38.87,27.28c.68-.67,1.08-1.58,1.08-2.56,0-1.98-1.61-3.6-3.6-3.6-.66,0-1.3.18-1.87.52-.19.11-.25.36-.14.55.11.19.36.25.55.14.44-.27.94-.41,1.45-.41,1.54,0,2.8,1.26,2.8,2.8,0,.95-.48,1.83-1.28,2.35-.67.44-1.52.57-2.3.35-.21-.06-.43.06-.49.27-.06.21.06.43.28.49.32.09.66.14.99.14.63,0,1.24-.17,1.78-.48,2.05.74,3.42,2.68,3.42,4.88v2h-3.65c-.28-2.67-1.96-5.01-4.42-6.12.78-.79,1.26-1.88,1.26-3.08,0-2.43-1.97-4.4-4.4-4.4s-4.4,1.97-4.4,4.4c0,1.2.48,2.29,1.26,3.08-.83.37-1.59.9-2.24,1.54-1.24,1.25-2,2.85-2.18,4.57h-3.64v-2c0-1.39.54-2.69,1.52-3.68.54-.54,1.2-.95,1.91-1.2.54.31,1.15.48,1.77.48.34,0,.67-.05.99-.14.21-.06.34-.28.28-.49-.06-.21-.28-.33-.49-.27-.78.22-1.63.09-2.3-.35-.8-.52-1.27-1.39-1.27-2.34,0-1.54,1.26-2.8,2.8-2.8.51,0,1.01.14,1.45.41.19.11.43.05.55-.14.11-.19.05-.43-.14-.55-.57-.34-1.21-.52-1.87-.52-1.99,0-3.6,1.62-3.6,3.6,0,.98.4,1.89,1.08,2.56-.63.29-1.22.7-1.72,1.2-1.13,1.14-1.76,2.64-1.76,4.24v2.4c0,.22.18.4.4.4h4v3.2c0,.22.18.4.4.4h14.4c.22,0,.4-.18.4-.4v-3.2h4c.22,0,.4-.18.4-.4v-2.4c0-2.37-1.37-4.47-3.48-5.44Zm-12.12-1.76c0-1.98,1.61-3.6,3.6-3.6s3.6,1.62,3.6,3.6-1.61,3.6-3.6,3.6-3.6-1.62-3.6-3.6Zm10.4,12.8h-13.6v-2.8c0-1.81.71-3.52,1.99-4.81.68-.67,1.5-1.19,2.37-1.53.7.47,1.54.74,2.44.74s1.74-.27,2.44-.74c2.61,1,4.36,3.53,4.36,6.34v2.8Z"/>
      </g>
    </g>
  </g>
</svg>